<svg width="29" height="33" viewBox="0 0 29 33" fill="none" xmlns="http://www.w3.org/2000/svg">
<g clip-path="url(#clip0)">
<path d="M2.66669 25.0636V19.8394" stroke="#4E4E4E" stroke-width="1.3602" stroke-miterlimit="10"></path>
<path d="M5.33342 22.4517H0" stroke="#4E4E4E" stroke-width="1.3602" stroke-miterlimit="10"></path>
<path d="M2.66669 33.0002V27.7759" stroke="#4E4E4E" stroke-width="1.3602" stroke-miterlimit="10"></path>
<path d="M5.33342 30.3882H0" stroke="#4E4E4E" stroke-width="1.3602" stroke-miterlimit="10"></path>
<path d="M10.5555 13.1603V7.93604" stroke="#4E4E4E" stroke-width="1.3602" stroke-miterlimit="10"></path>
<path d="M13.2223 10.5483H7.88885" stroke="#4E4E4E" stroke-width="1.3602" stroke-miterlimit="10"></path>
<path d="M10.5555 21.0959V15.8716" stroke="#4E4E4E" stroke-width="1.3602" stroke-miterlimit="10"></path>
<path d="M13.2223 18.4839H7.88885" stroke="#4E4E4E" stroke-width="1.3602" stroke-miterlimit="10"></path>
<path d="M10.5555 29.0319V23.8076" stroke="#4E4E4E" stroke-width="1.3602" stroke-miterlimit="10"></path>
<path d="M13.2223 26.4199H7.88885" stroke="#4E4E4E" stroke-width="1.3602" stroke-miterlimit="10"></path>
<path d="M18.4444 9.19207V3.96777" stroke="#4E4E4E" stroke-width="1.3602" stroke-miterlimit="10"></path>
<path d="M21.1111 6.58008H15.7777" stroke="#4E4E4E" stroke-width="1.3602" stroke-miterlimit="10"></path>
<path d="M18.4444 17.128V11.9043" stroke="#4E4E4E" stroke-width="1.3602" stroke-miterlimit="10"></path>
<path d="M21.1111 14.5156H15.7777" stroke="#4E4E4E" stroke-width="1.3602" stroke-miterlimit="10"></path>
<path d="M18.4444 25.0636V19.8394" stroke="#4E4E4E" stroke-width="1.3602" stroke-miterlimit="10"></path>
<path d="M21.1111 22.4517H15.7777" stroke="#4E4E4E" stroke-width="1.3602" stroke-miterlimit="10"></path>
<path d="M26.3339 5.22429V0" stroke="#4E4E4E" stroke-width="1.3602" stroke-miterlimit="10"></path>
<path d="M29 2.6123H23.6672" stroke="#4E4E4E" stroke-width="1.3602" stroke-miterlimit="10"></path>
<path d="M26.3339 13.1603V7.93604" stroke="#4E4E4E" stroke-width="1.3602" stroke-miterlimit="10"></path>
<path d="M29 10.5483H23.6672" stroke="#4E4E4E" stroke-width="1.3602" stroke-miterlimit="10"></path>
</g>
<defs>
<clipPath id="clip0">
<rect width="29" height="33" fill="white"></rect>
</clipPath>
</defs>
</svg>